<?xml version="1.0" encoding="UTF-8"?>
<!DOCTYPE svg PUBLIC "-//W3C//DTD SVG 1.1//EN" "http://www.w3.org/Graphics/SVG/1.1/DTD/svg11.dtd">
<svg xmlns="http://www.w3.org/2000/svg" version="1.1" width="32px" height="32px" style="shape-rendering:geometricPrecision; text-rendering:geometricPrecision; image-rendering:optimizeQuality; fill-rule:evenodd; clip-rule:evenodd" xmlns:xlink="http://www.w3.org/1999/xlink">
<g><path style="opacity:0.925" fill="#1e1d16" d="M 11.5,-0.5 C 14.1667,-0.5 16.8333,-0.5 19.5,-0.5C 19.7733,1.45101 19.1066,2.95101 17.5,4C 20.898,6.7374 24.5647,7.57073 28.5,6.5C 27.3293,10.3854 27.6626,14.2188 29.5,18C 28.5378,24.4365 25.2045,28.9365 19.5,31.5C 16.8333,31.5 14.1667,31.5 11.5,31.5C 2.78309,26.8908 0.449755,20.0575 4.5,11C 1.77774,7.38565 2.61107,6.21898 7,7.5C 9.18458,6.33046 11.3512,5.16379 13.5,4C 11.8934,2.95101 11.2267,1.45101 11.5,-0.5 Z"/></g>
<g><path style="opacity:1" fill="#b8bfc0" d="M 14.5,3.5 C 16.337,3.63945 16.6704,4.30612 15.5,5.5C 14.7025,5.04311 14.3691,4.37644 14.5,3.5 Z"/></g>
<g><path style="opacity:1" fill="#e7f1f2" d="M 6.5,9.5 C 4.97189,9.48269 4.47189,8.81602 5,7.5C 5.71719,8.0442 6.21719,8.71087 6.5,9.5 Z"/></g>
<g><path style="opacity:0.965" fill="#a1a8a8" d="M 24.5,9.5 C 25.1405,7.66803 26.1405,7.33469 27.5,8.5C 26.675,9.38568 25.675,9.71901 24.5,9.5 Z"/></g>
<g><path style="opacity:1" fill="#e2c542" d="M 24.5,9.5 C 30.565,20.371 27.565,27.371 15.5,30.5C 3.99195,27.1503 0.991952,20.1503 6.5,9.5C 12.5,5.5 18.5,5.5 24.5,9.5 Z"/></g>
<g><path style="opacity:1" fill="#6e6d60" d="M 8.5,11.5 C 8.57298,13.0269 7.90632,14.0269 6.5,14.5C 6.42702,12.9731 7.09368,11.9731 8.5,11.5 Z"/></g>
<g><path style="opacity:1" fill="#6e6640" d="M 20.5,9.5 C 22.8333,9.83333 24.1667,11.1667 24.5,13.5C 22.8333,12.5 21.5,11.1667 20.5,9.5 Z"/></g>
<g><path style="opacity:1" fill="#dee6e5" d="M 20.5,9.5 C 21.5,11.1667 22.8333,12.5 24.5,13.5C 25.9909,17.8034 25.3242,21.8034 22.5,25.5C 20.847,25.6596 19.5137,26.3263 18.5,27.5C 15.6596,28.9171 12.993,28.5838 10.5,26.5C 9.83333,25.1667 8.83333,24.1667 7.5,23.5C 6.05984,22.0539 5.39317,20.2206 5.5,18C 5.51428,16.6153 5.84761,15.4486 6.5,14.5C 7.90632,14.0269 8.57298,13.0269 8.5,11.5C 12.2273,9.74762 16.2273,9.08095 20.5,9.5 Z"/></g>
<g><path style="opacity:1" fill="#483031" d="M 18.5,19.5 C 19.404,20.209 19.7373,21.209 19.5,22.5C 18.209,22.7373 17.209,22.404 16.5,21.5C 17.8333,21.5 18.5,20.8333 18.5,19.5 Z"/></g>
<g><path style="opacity:1" fill="#bc4d51" d="M 18.5,19.5 C 18.5,20.8333 17.8333,21.5 16.5,21.5C 15.8333,21.5 15.5,21.1667 15.5,20.5C 14.701,17.5701 14.3677,14.5701 14.5,11.5C 15.1894,10.2264 16.0228,10.2264 17,11.5C 17.2724,14.2538 17.7724,16.9205 18.5,19.5 Z"/></g>
<g><path style="opacity:1" fill="#675a5b" d="M 14.5,11.5 C 14.3677,14.5701 14.701,17.5701 15.5,20.5C 14.8826,20.3893 14.3826,20.056 14,19.5C 13.1993,16.633 13.3659,13.9664 14.5,11.5 Z"/></g>
<g><path style="opacity:1" fill="#8e8c7a" d="M 20.5,9.5 C 16.2273,9.08095 12.2273,9.74762 8.5,11.5C 10.248,8.95773 12.748,7.62439 16,7.5C 17.876,7.52472 19.376,8.19138 20.5,9.5 Z"/></g>
<g><path style="opacity:1" fill="#70673e" d="M 7.5,23.5 C 8.83333,24.1667 9.83333,25.1667 10.5,26.5C 8.5,26.5 7.5,25.5 7.5,23.5 Z"/></g>
<g><path style="opacity:1" fill="#58543f" d="M 22.5,25.5 C 21.713,27.1042 20.3797,27.7709 18.5,27.5C 19.5137,26.3263 20.847,25.6596 22.5,25.5 Z"/></g>
</svg>
