<?xml version="1.0" encoding="UTF-8"?>
<!DOCTYPE svg PUBLIC "-//W3C//DTD SVG 1.1//EN" "http://www.w3.org/Graphics/SVG/1.1/DTD/svg11.dtd">
<svg xmlns="http://www.w3.org/2000/svg" version="1.1" width="56px" height="31px" style="shape-rendering:geometricPrecision; text-rendering:geometricPrecision; image-rendering:optimizeQuality; fill-rule:evenodd; clip-rule:evenodd" xmlns:xlink="http://www.w3.org/1999/xlink">
<g><path style="opacity:0.948" fill="#ff6b09" d="M -0.5,-0.5 C 14.5,-0.5 29.5,-0.5 44.5,-0.5C 47.7875,4.78611 51.4542,9.78611 55.5,14.5C 55.5,14.8333 55.5,15.1667 55.5,15.5C 51.2706,20.2782 47.2706,25.2782 43.5,30.5C 28.8333,30.5 14.1667,30.5 -0.5,30.5C -0.5,20.1667 -0.5,9.83333 -0.5,-0.5 Z M 13.5,8.5 C 16.0728,8.14849 18.4062,8.64849 20.5,10C 17.8815,10.184 15.3815,11.0173 13,12.5C 11.5498,17.8849 13.3831,19.5515 18.5,17.5C 17.675,16.6143 16.675,16.281 15.5,16.5C 15.5,15.5 15.5,14.5 15.5,13.5C 17.5,13.5 19.5,13.5 21.5,13.5C 21.7555,20.8821 18.4222,23.0487 11.5,20C 8.35779,15.3444 9.02446,11.5111 13.5,8.5 Z M 28.5,8.5 C 37.3058,8.46405 39.6391,12.2974 35.5,20C 31.7298,22.2786 28.3965,21.7786 25.5,18.5C 23.7439,14.2476 24.7439,10.9143 28.5,8.5 Z"/></g>
<g><path style="opacity:0.92" fill="#ff6a09" d="M 30.5,10.5 C 34.3958,11.7805 35.3958,14.2805 33.5,18C 28.3333,19.5 26.5,17.6667 28,12.5C 28.9947,11.9341 29.828,11.2674 30.5,10.5 Z"/></g>
</svg>
