<?xml version="1.0" encoding="UTF-8"?>
<!DOCTYPE svg PUBLIC "-//W3C//DTD SVG 1.1//EN" "http://www.w3.org/Graphics/SVG/1.1/DTD/svg11.dtd">
<svg xmlns="http://www.w3.org/2000/svg" version="1.1" width="32px" height="32px" style="shape-rendering:geometricPrecision; text-rendering:geometricPrecision; image-rendering:optimizeQuality; fill-rule:evenodd; clip-rule:evenodd" xmlns:xlink="http://www.w3.org/1999/xlink">
<g><path style="opacity:0.957" fill="#0f0b08" d="M 15.5,-0.5 C 19.8333,-0.5 24.1667,-0.5 28.5,-0.5C 29.2905,0.40128 30.2905,1.06795 31.5,1.5C 31.5,6.16667 31.5,10.8333 31.5,15.5C 29.232,21.3013 25.232,23.3013 19.5,21.5C 23.2604,22.2264 25.927,20.8931 27.5,17.5C 24.5701,16.701 21.5701,16.3677 18.5,16.5C 18.5,18.1667 18.5,19.8333 18.5,21.5C 18.0076,25.8309 16.0076,29.1642 12.5,31.5C 10.1667,31.5 7.83333,31.5 5.5,31.5C 2.79973,29.7656 0.799728,27.4323 -0.5,24.5C -0.5,19.8333 -0.5,15.1667 -0.5,10.5C 3.59559,8.72033 7.92892,8.05366 12.5,8.5C 12.3367,6.14316 12.5034,3.80982 13,1.5C 13.9947,0.934056 14.828,0.267389 15.5,-0.5 Z"/></g>
<g><path style="opacity:1" fill="#bb4857" d="M 27.5,17.5 C 27.7709,15.6203 27.1042,14.287 25.5,13.5C 24.8658,12.0532 23.6991,11.3866 22,11.5C 20.9302,11.528 20.0968,11.8614 19.5,12.5C 18.7777,11.4489 17.7777,10.7822 16.5,10.5C 15.5084,10.6716 14.8417,10.3382 14.5,9.5C 11.9418,2.54621 14.4418,-0.453795 22,0.5C 24.6299,0.464017 27.1299,0.964017 29.5,2C 30.626,5.74363 30.7927,9.57697 30,13.5C 29.7996,15.3197 28.9663,16.653 27.5,17.5 Z"/></g>
<g><path style="opacity:1" fill="#52453c" d="M 16.5,5.5 C 17.8333,5.5 19.1667,5.5 20.5,5.5C 20.6567,6.87344 20.49,8.20677 20,9.5C 19,8.16667 18,8.16667 17,9.5C 16.51,8.20677 16.3433,6.87344 16.5,5.5 Z"/></g>
<g><path style="opacity:1" fill="#52453c" d="M 23.5,5.5 C 24.8333,5.5 26.1667,5.5 27.5,5.5C 27.6567,6.87344 27.49,8.20677 27,9.5C 26,8.16667 25,8.16667 24,9.5C 23.51,8.20677 23.3433,6.87344 23.5,5.5 Z"/></g>
<g><path style="opacity:1" fill="#a5cc71" d="M 14.5,9.5 C 14.8417,10.3382 15.5084,10.6716 16.5,10.5C 19.1074,18.1801 17.4408,24.6801 11.5,30C 6.15226,30.3466 2.65226,27.8466 1,22.5C 0.333333,18.8333 0.333333,15.1667 1,11.5C 1.75044,10.8742 2.58377,10.3742 3.5,10C 7.15159,9.50137 10.8183,9.3347 14.5,9.5 Z"/></g>
<g><path style="opacity:1" fill="#2e211e" d="M 19.5,12.5 C 20.0968,11.8614 20.9302,11.528 22,11.5C 23.6991,11.3866 24.8658,12.0532 25.5,13.5C 23.5648,12.8505 21.5648,12.5172 19.5,12.5 Z"/></g>
<g><path style="opacity:1" fill="#e5d7b4" d="M 19.5,12.5 C 21.5648,12.5172 23.5648,12.8505 25.5,13.5C 24.8478,14.7251 23.6811,15.3917 22,15.5C 19.1226,15.5627 18.2892,14.5627 19.5,12.5 Z"/></g>
<g><path style="opacity:1" fill="#454935" d="M 3.5,14.5 C 4.83333,14.5 6.16667,14.5 7.5,14.5C 7.5,15.8333 7.5,17.1667 7.5,18.5C 6.16667,18.5 4.83333,18.5 3.5,18.5C 3.5,17.1667 3.5,15.8333 3.5,14.5 Z"/></g>
<g><path style="opacity:1" fill="#454935" d="M 10.5,14.5 C 11.8333,14.5 13.1667,14.5 14.5,14.5C 14.5,15.8333 14.5,17.1667 14.5,18.5C 13.1667,18.5 11.8333,18.5 10.5,18.5C 10.5,17.1667 10.5,15.8333 10.5,14.5 Z"/></g>
<g><path style="opacity:1" fill="#bf4a58" d="M 27.5,17.5 C 25.927,20.8931 23.2604,22.2264 19.5,21.5C 19.1667,21.5 18.8333,21.5 18.5,21.5C 18.5,19.8333 18.5,18.1667 18.5,16.5C 21.5701,16.3677 24.5701,16.701 27.5,17.5 Z"/></g>
<g><path style="opacity:1" fill="#3a392c" d="M 12.5,25.5 C 11.8478,24.2749 10.6811,23.6083 9,23.5C 7.31887,23.6083 6.1522,24.2749 5.5,25.5C 3.52409,24.5729 3.19075,23.2395 4.5,21.5C 7.5,22.8333 10.5,22.8333 13.5,21.5C 14.8092,23.2395 14.4759,24.5729 12.5,25.5 Z"/></g>
<g><path style="opacity:1" fill="#e9dcb8" d="M 12.5,25.5 C 10.1667,26.8333 7.83333,26.8333 5.5,25.5C 6.1522,24.2749 7.31887,23.6083 9,23.5C 10.6811,23.6083 11.8478,24.2749 12.5,25.5 Z"/></g>
<g><path style="opacity:1" fill="#2d3023" d="M 5.5,25.5 C 7.83333,26.8333 10.1667,26.8333 12.5,25.5C 11.8658,26.9468 10.6991,27.6134 9,27.5C 7.30085,27.6134 6.13419,26.9468 5.5,25.5 Z"/></g>
</svg>
